<svg width="118" height="22" viewBox="0 0 118 22" fill="none" xmlns="http://www.w3.org/2000/svg"><path d="M1.66 19.66a8.17 8.17 0 0 1-1.4-5.15V7.07a8.3 8.3 0 0 1 1.38-5.2C2.57.7 4.15.1 6.4.12c2.24 0 3.76.53 4.55 1.56a6.63 6.63 0 0 1 1.33 4.45v1.75H8.13v-1.9c0-.5-.04-1-.13-1.49a1.66 1.66 0 0 0-.47-.94 1.56 1.56 0 0 0-1.15-.36 1.47 1.47 0 0 0-1.5.74c-.26.7-.37 1.44-.34 2.18v9.44c-.04.75.1 1.5.4 2.19a1.48 1.48 0 0 0 1.44.72 1.36 1.36 0 0 0 1.4-.73c.25-.7.35-1.44.31-2.18v-1.98h4.14v1.72A7.15 7.15 0 0 1 11 19.85c-.88 1.1-2.4 1.63-4.56 1.63-2.16 0-3.85-.6-4.78-1.82ZM17.91.4h4.74l4 20.83h-3.94l-.7-4.6h-3.33l-.8 4.57h-4L17.91.4ZM21.56 14 20.3 5.65 19.05 14h2.51ZM29.73 3.53h-3.24V.4H37.2v3.13H34V21.2h-4.3l.02-17.67Z" fill="#111"/><path d="M45.62.4h8.13v2.16h-5.2v6.87h4.22v2.06h-4.22v7.63h5.25v2.08h-8.18V.4ZM56.16.4h2l6 13.82V.4h2.44v20.83h-1.87l-6-14.2V21.2h-2.48L56.15.4ZM69.83.4h8.12v2.16h-5.2v6.87H77v2.06h-4.22v7.63H78v2.08h-8.18V.4ZM80.36.4h4.22a7.04 7.04 0 0 1 4.67 1.3c1 .86 1.49 2.27 1.49 4.22 0 2.65-.87 4.26-2.6 4.85l3 10.43h-2.83l-2.75-9.76h-2.27v9.76h-2.93V.4Zm4 8.93a3.9 3.9 0 0 0 2.7-.76 3.53 3.53 0 0 0 .82-2.69 5.76 5.76 0 0 0-.3-1.98 1.87 1.87 0 0 0-1-1.07 4.8 4.8 0 0 0-2.04-.35h-1.3v6.88l1.12-.03ZM94.68 19.66a9.12 9.12 0 0 1-1.27-5.3V7.4c-.04-1.34.13-2.68.5-3.97.29-.97.9-1.81 1.74-2.39 1.01-.6 2.18-.9 3.36-.83a5.3 5.3 0 0 1 4.18 1.47 6.9 6.9 0 0 1 1.28 4.59v.77h-2.75v-.64a11.3 11.3 0 0 0-.18-2.3c-.1-.49-.36-.92-.76-1.22a3.02 3.02 0 0 0-1.72-.4c-.65-.06-1.3.13-1.81.55-.42.39-.69.9-.77 1.46-.13.82-.18 1.65-.17 2.47v7.73a7.4 7.4 0 0 0 .59 3.43 2.83 2.83 0 0 0 3.5.73c.38-.2.71-.47.97-.82a8 8 0 0 0 .6-3.62v-1.46h-2.65V10.9h5.3v10.3h-1.81l-.3-2.4a3.66 3.66 0 0 1-3.72 2.66 4.7 4.7 0 0 1-4.11-1.8ZM110.7 13.86 106.17.4h2.72l3.2 10.04L115.27.4H118l-4.5 13.46v7.34h-2.8l-.01-7.34Z" fill="#444"/></svg>